<svg width="48" height="48" viewBox="0 0 48 48" fill="none" xmlns="http://www.w3.org/2000/svg">
<mask id="path-1-inside-1_159_366" fill="white">
<path fill-rule="evenodd" clip-rule="evenodd" d="M18.3541 13C17.5363 13 16.8008 13.4979 16.4971 14.2572L15 18H8C3.58172 18 0 21.5817 0 26V40C0 44.4183 3.58172 48 8 48H40C44.4183 48 48 44.4183 48 40V26C48 21.5817 44.4183 18 40 18H33L31.5029 14.2572C31.1992 13.4979 30.4637 13 29.6459 13H18.3541Z"/>
</mask>
<path d="M16.4971 14.2572L19.2825 15.3714V15.3714L16.4971 14.2572ZM15 18V21H17.0311L17.7854 19.1142L15 18ZM33 18L30.2146 19.1142L30.9689 21H33V18ZM31.5029 14.2572L28.7175 15.3714V15.3714L31.5029 14.2572ZM19.2825 15.3714C19.1307 15.751 18.763 16 18.3541 16V10C16.3095 10 14.471 11.2448 13.7117 13.143L19.2825 15.3714ZM17.7854 19.1142L19.2825 15.3714L13.7117 13.143L12.2146 16.8858L17.7854 19.1142ZM8 21H15V15H8V21ZM3 26C3 23.2386 5.23858 21 8 21V15C1.92487 15 -3 19.9249 -3 26H3ZM3 40V26H-3V40H3ZM8 45C5.23858 45 3 42.7614 3 40H-3C-3 46.0751 1.92487 51 8 51V45ZM40 45H8V51H40V45ZM45 40C45 42.7614 42.7614 45 40 45V51C46.0751 51 51 46.0751 51 40H45ZM45 26V40H51V26H45ZM40 21C42.7614 21 45 23.2386 45 26H51C51 19.9249 46.0751 15 40 15V21ZM33 21H40V15H33V21ZM28.7175 15.3714L30.2146 19.1142L35.7854 16.8858L34.2883 13.143L28.7175 15.3714ZM29.6459 16C29.237 16 28.8693 15.751 28.7175 15.3714L34.2883 13.143C33.529 11.2448 31.6905 10 29.6459 10V16ZM18.3541 16H29.6459V10H18.3541V16Z" fill="#152C5B" mask="url(#path-1-inside-1_159_366)"/>
<circle cx="24" cy="33" r="6.5" stroke="#FF4988" stroke-width="3"/>
<rect width="2" height="7" rx="1" transform="matrix(-0.00381971 -0.999993 -0.999993 0.00381971 41.0076 26)" stroke="#152C5B" stroke-width="2" stroke-linejoin="round"/>
</svg>
