<svg width="48" height="48" viewBox="0 0 48 48" fill="none" xmlns="http://www.w3.org/2000/svg">
<path d="M30.5 41C30.5 41.4702 30.2885 42.0364 29.6642 42.6821C29.033 43.3351 28.0471 43.9916 26.7125 44.5755C24.0477 45.7414 20.2614 46.5 16 46.5C11.7386 46.5 7.9523 45.7414 5.28752 44.5755C3.9529 43.9916 2.96704 43.3351 2.33578 42.6821C1.7115 42.0364 1.5 41.4702 1.5 41C1.5 40.5298 1.7115 39.9636 2.33578 39.3179C2.96704 38.6649 3.9529 38.0084 5.28752 37.4245C7.9523 36.2586 11.7386 35.5 16 35.5C20.2614 35.5 24.0477 36.2586 26.7125 37.4245C28.0471 38.0084 29.033 38.6649 29.6642 39.3179C30.2885 39.9636 30.5 40.5298 30.5 41Z" stroke="#152C5B" stroke-width="3"/>
<path d="M27.5 13.3953C27.5 16.849 26.118 23.6831 23.7543 29.6712C22.5765 32.6549 21.1948 35.3234 19.6952 37.218C18.16 39.1575 16.7359 40 15.5 40C14.2471 40 12.7573 39.1389 11.1226 37.1862C9.52882 35.2822 8.02553 32.6061 6.72564 29.6228C4.11114 23.6224 2.5 16.81 2.5 13.3953C2.5 6.88745 8.03334 1.5 15 1.5C21.9667 1.5 27.5 6.88745 27.5 13.3953Z" fill="white" stroke="#152C5B" stroke-width="3"/>
<circle cx="15" cy="13" r="4.5" stroke="#FF4988" stroke-width="3"/>
</svg>
